<?xml version="1.0" ?><svg xmlns="http://www.w3.org/2000/svg" xmlns:xlink="http://www.w3.org/1999/xlink" viewBox="0 0 24 24"><defs><style>
      .cls-1 {
        fill: #212529;
      }

      .cls-2 {
        fill: url(#New_Gradient_Swatch);
      }

      .cls-3 {
        fill: url(#New_Gradient_Swatch-2);
      }
    </style><linearGradient id="New_Gradient_Swatch" data-name="New Gradient Swatch" x1="19.4722" y1="23.4769" x2="4.5278" y2="8.5325" gradientUnits="userSpaceOnUse"><stop offset="0" stop-color="#60efff"/><stop offset=".1168" stop-color="#5ff0f1"/><stop offset=".5033" stop-color="#5df5ca"/><stop offset=".8112" stop-color="#5cf8b1"/><stop offset="1" stop-color="#5cfaa9"/></linearGradient><linearGradient id="New_Gradient_Swatch-2" data-name="New Gradient Swatch" x1="13.3552" y1="10.0844" x2="9.1863" y2="5.9156" xlink:href="#New_Gradient_Swatch"/></defs><g id="Layer_9" data-name="Layer 9"><path class="cls-2" d="M23,16c0,1.2-.12,2.29-.29,3.25-.3,1.68-1.66,2.96-3.35,3.21-2.16,.32-4.63,.54-7.36,.54s-5.2-.22-7.36-.54c-1.69-.25-3.05-1.53-3.35-3.21-.17-.96-.29-2.05-.29-3.25s.12-2.29,.29-3.25c.18-1.01,.7401-1.87,1.53-2.44l1.18,1.07,5.31,4.83c1.52,1.39,3.86,1.39,5.38,0l5.31-4.83,1.18-1.07c.79,.57,1.35,1.43,1.53,2.44,.17,.96,.29,2.05,.29,3.25Z"/><path class="cls-3" d="M10.3939,5.5974l4.5337,1.943c.4041,.1732,.4041,.746,0,.9191l-4.5337,1.943c-.6599,.2828-1.3939-.2012-1.3939-.9191v-2.9669c0-.7179,.7341-1.2019,1.3939-.9191Z"/></g><g id="Outline"><g><path class="cls-1" d="M8.8994,11.1533c.333,.2192,.7148,.3311,1.0996,.3311,.2666,0,.5352-.0537,.7881-.1626l4.5342-1.9429c.5527-.2363,.9092-.7773,.9092-1.3789s-.3564-1.1426-.9092-1.3784l-4.5342-1.9434c-.6172-.2656-1.3242-.2026-1.8877,.1685s-.8994,.9956-.8994,1.6699v2.9668c0,.6743,.3359,1.2988,.8994,1.6699Zm1.0996-4.6372h.001l3.4609,1.4839-3.4609,1.4834-.0039-2.9683,.0029,.001Z"/><path class="cls-1" d="M23.6943,12.5747c-.2765-1.5558-1.2852-2.8613-2.6943-3.5533V3c0-1.6543-1.3457-3-3-3H6c-1.6543,0-3,1.3457-3,3v6.0214c-1.4091,.692-2.4178,1.9976-2.6943,3.5543-.2031,1.1445-.3057,2.2969-.3057,3.4243s.1025,2.2798,.3057,3.4258c.373,2.0908,2.0557,3.708,4.1875,4.0234,2.4688,.3652,4.9941,.5508,7.5068,.5508s5.0381-.1855,7.5068-.5508c2.1318-.3154,3.8145-1.9326,4.1875-4.0249,.2031-1.1445,.3057-2.2969,.3057-3.4243s-.1025-2.2798-.3057-3.4253ZM6,2h12c.5518,0,1,.4487,1,1v7.9399l-4.9844,4.5322c-1.1299,1.0332-2.9014,1.0322-4.0332-.002l-4.9824-4.5303V3c0-.5513,.4482-1,1-1Zm15.7256,17.0742c-.2217,1.2441-1.2314,2.207-2.5117,2.3965-4.7441,.7021-9.6836,.7021-14.4277,0-1.2803-.1895-2.29-1.1523-2.5117-2.395-.1816-1.0298-.2744-2.0645-.2744-3.0757s.0928-2.0459,.2744-3.0747c.0826-.4637,.2925-.8788,.571-1.2414l5.7894,5.2639c.9443,.8633,2.1553,1.2944,3.3662,1.2944,1.21,0,2.4199-.4312,3.3623-1.2925l5.7914-5.2659c.2784,.3624,.4884,.7772,.5709,1.2405,.1816,1.0298,.2744,2.0645,.2744,3.0757s-.0928,2.0459-.2744,3.0742Z"/></g></g></svg>